<?xml version="1.0" encoding="UTF-8"?>
<svg id="Layer_2" xmlns="http://www.w3.org/2000/svg" viewBox="0 0 230.36 114.18">
  <defs>
    <style>
      .cls-1 {
        fill: #751a29;
      }

      .cls-2 {
        fill: #751a29;
      }

      .cls-3 {
        fill: #e0d0c3;
      }
    </style>
  </defs>
  <g id="Layer_1-2" data-name="Layer_1">
    <g>
      <g>
        <path class="cls-3" d="M42.71.13h0C27.16.13,14.56,12.73,14.56,28.28v27.35h56.3v-27.35C70.85,12.73,58.25.13,42.71.13Z"/>
        <path class="cls-2" d="M42.71,53.76c-21.08,0-38.67,1.81-42.71,4.21h85.41c-4.04-2.4-21.62-4.21-42.71-4.21Z"/>
        <g>
          <g>
            <path class="cls-2" d="M44.18,11.21c-.8-.08-1.58.27-2.34,1.04.91,0,1.75-.39,2.34-1.04Z"/>
            <path class="cls-2" d="M48.47,12.34c-.77-.76-1.56-1.09-2.36-1,.6.64,1.45,1.01,2.36,1Z"/>
            <path class="cls-2" d="M39.4,15.1h0c-.26-.13-.42-.25-.47-.37-.05-.27.35-.51,1.2-.68,1.61-.33,3.25-.46,4.89-.43,1.64-.03,3.27.1,4.89.43.84.17,1.24.41,1.19.68-.05.12-.2.24-.46.37h0c.8-.18.67-.68.56-1.31-.82-.14-1.39-.34-1.94-1.45-.2.14-.42.23-.64.3h0s-.04.01-.06.02c-1.29.34-2.8-.46-3.53-1.94-.73,1.48-2.24,2.27-3.53,1.94l-.07-.02c-.22-.07-.43-.16-.64-.3-.55,1.11-1.12,1.31-1.95,1.45-.11.63-.24,1.13.56,1.31ZM48.77,13.2h0v-.02h0s0-.02,0-.02h0s0-.02,0-.02h0s0-.01,0-.01h0s0-.01,0-.01h0s0-.02,0-.02h0s0,0,0,0h0s0-.01,0-.01h0s0,0,0,0h0s0,0,0,0h0s0,0,0,0h0s0,0,0,0h0s0,0,0,0h0s0,0,0,0h0s0,0,0,0h0s0,0,0,0h0s0,0,0,0h0s0,0,0,0h0s0,0,0,0h0s0,0,0,0h0s0,0,0,0h0s0,0,0,0h0s0,0,0,0h0s0,0,0,0h0s0,0,0,0h0s0,0,0,0h0s0,0,0,0h0s0,0,0,0h0s0,0,0,0h0s0,0,0,0h0s0,0,0,0h0s0,0,0,0h0s0,0,0,0h0s.04,0,.06,0c.14,0,.26.12.26.27,0,.02,0,.04,0,.07,0,0,0,.02,0,.02h0s0,0,0,0c0,.01-.01.03-.02.04h0s0,.02,0,.02h0s0,0,0,0h0s-.02.02-.02.03h0s0,0,0,0h0s0,0,0,0h0s0,0,0,0h0s0,0,0,0h0s0,0,0,0h0s0,0,0,0h0s0,0,0,0h0s0,0,0,0h0s0,0,0,0h0s0,0,0,0h0s0,0,0,0h0s0,0,0,0h0s0,0,0,0h0s0,0,0,0h0s0,0,0,0h0s0,0,0,0h0s0,0,0,0h-.02s0,0,0,0h-.02c-.15,0-.26-.12-.26-.26h0ZM47.29,12.91c.08,0,.16.07.16.16s-.07.16-.16.16-.16-.07-.16-.16.07-.16.16-.16ZM44.32,12.58h0s0-.03,0-.04h0s0-.03,0-.04h0s0-.03,0-.03h0s0-.03,0-.03c.07-.3.32-.4.43-.47.17-.06.35-.06.52,0,.11.07.36.17.43.47v.02s0,.01,0,.01c0,0,0,.02,0,.03h0s0,.03,0,.04h0s0,.03,0,.04h0s0,.03,0,.05c0,.39-.32.71-.71.71s-.71-.32-.71-.71v-.04ZM42.76,12.91c.09,0,.16.07.16.16s-.07.16-.16.16-.16-.07-.16-.16.07-.16.16-.16ZM41.02,12.94s.04,0,.06,0h.01s0,0,0,0h0s0,0,0,0h0s0,0,0,0h0s0,0,0,0h0s0,0,0,0h0s0,0,0,0h0s0,0,0,0h0s0,0,0,0h0s0,0,0,0h0s0,0,0,0h0s0,0,0,0h0s0,0,0,0h0s0,0,0,0h0s0,0,0,0h0s0,0,0,0h0s0,0,0,0h0s0,0,0,0h0s0,0,0,0h0s0,0,0,0h0s0,0,0,0h0s0,0,0,0h0s0,0,0,0h0s0,0,0,0h0s0,.02,0,.02h0s0,0,0,0h0s0,0,0,0h0s0,0,0,0h0s0,0,0,0h0s0,.01,0,.01h0s0,.02,0,.02h0v.02h0s0,0,0,0h0v.02h0c0,.15-.12.27-.26.27h-.02s0,0,0,0h-.02s0,0,0,0h0s0,0,0,0h-.01s0,0,0,0h0s0,0,0,0h0s0,0,0,0h0s0,0,0,0h0s0,0,0,0h0s0,0,0,0h0s0,0,0,0h0s0,0,0,0h0s0,0,0,0h0s0,0,0,0h0s0,0,0,0h0s0,0,0,0h0s0,0,0,0h0s-.02-.02-.02-.03h0s0,0,0,0c0,0,0,0-.01-.02h0s-.02-.03-.02-.05h0s0-.02,0-.03c0-.02,0-.04,0-.07,0-.15.12-.27.26-.27Z"/>
          </g>
          <path class="cls-2" d="M67.53,54.75c-.27-.08-.53-.19-.79-.31-.51-.24-1-.54-1.46-.87-.69-.49-1.33-1.07-1.87-1.74-.03,0-.06-.02-.09-.02-.62-.1-1.24.1-1.87.1-.33,0-.64-.05-.94-.13-.24-.32-.47-.65-.7-.97.39-.79.75-1.6,1.07-2.43.39-1.05.72-2.14.88-3.25.08-.56.14-1.12.15-1.68.01-.55,0-1.13-.16-1.66,0-.02-.01-.03-.03-.03-.02-.09-.03-.18-.05-.28-.03-.1-.05-.19-.08-.28-.02-.07-.04-.13-.07-.2-.01-.03-.02-.07-.04-.1,0-.01,0-.02-.01-.03,0,0,0,0,0-.01-.13-.29-.28-.57-.45-.84-.82-1.3-2.07-2.49-3.59-2.88-1.4-.36-2.7.02-3.99.55-.06.03-.12.05-.18.08-.01-.08-.03-.16-.04-.24-.02-.34-.03-.67-.04-1.01-.02-.06-.04-.12-.04-.18-.03-.4-.09-.81-.14-1.21.26-.47.45-.97.41-1.51-.03-.42-.17-.81-.33-1.19.75-.7,1.16-1.74,1.02-2.79-.1-.73-.45-1.38-.96-1.91-.22-.45-.5-.88-.84-1.25-.52-.56-1.33-.92-1.59-1.68-.29-.86.31-2,.52-2.84.26-1.04.47-2.09.4-3.16-.08-1.3-.5-2.6-1.27-3.65-.16-.22-.34-.43-.53-.64-4.9-.8-8.54-.21-9.51-.01-1.05,1.11-1.71,2.57-1.83,4.09-.2,2.44.55,4.01-1.64,5.66-.42.31-.84.64-1.2,1.02-.09.1-.18.2-.28.29-.32.27-.6.57-.84.9,0,0,0,0-.02.02-.35.48-.59,1.03-.63,1.66-.04.55.11,1.21-.11,1.74-.21.29-.48.53-.74.77-.06.05-.12.11-.18.17-.57.43-1.08.81-.95,1.71.13.96,1.09,2.56-.54,2.9-.17.04-.35.02-.53-.02.01.04.03.07.07.1.48.35,1.11.1,1.44-.34.46-.62.21-1.46.04-2.14-.27-1.14.35-1.51,1.16-2.13.56-.43.99-.92,1.22-1.6.09-.27.15-.54.21-.82.08.51.16,1.03-.03,1.55-.37,1-1.62,1.43-1.76,2.61-.11.92.32,1.64.8,2.38.25.38.52.77.6,1.23.08.44-.08,1-.52,1.21-.04.02-.04.05-.03.08.19-.12.36-.27.5-.46.45-.61.46-1.48.18-2.16-.27-.65-.83-1.34-.6-2.08.22-.7.96-1.04,1.35-1.62.29-.43.3-1,.3-1.5,0-.41.1-.79.32-1.14.02-.03.07,0,.05.03-.39.63-.27,1.25-.32,1.94-.03.41-.21.75-.47,1.06-.27.31-.59.56-.83.9-.3.43-.25.87-.01,1.32.2.38.46.72.63,1.12.07.16.11.33.15.51,0,.07,0,.14-.01.2-.05.45-.13.91-.09,1.37.04.48.21.88.51,1.25,0,.01.02.02.03.03-.16.96-.32,1.92-.55,2.86-.27,1.11-.7,2.14-1.3,3.12-.61.99-1.32,1.93-1.99,2.88-1.1,1.54-2.21,3.08-3.32,4.61-.3.08-.61.13-.94.13-.63,0-1.25-.2-1.87-.1-.03,0-.06.02-.09.02-.53.66-1.17,1.25-1.87,1.74-.46.32-.94.63-1.46.87-.26.12-.52.23-.79.31-.02,0-.03,0-.05.01.04.06.11.1.19.11,1.11.08,2.12-.44,3.07-.93.25-.13.49-.26.75-.38.22-.1.45-.22.69-.27.13-.02.39-.04.38.16-.02.26-.36.33-.56.35-.31.03-.62.02-.91.15-.24.11-.45.32-.49.59,0,.07,0,.12.03.16.07-.04.15-.07.22-.1.21-.09.42-.15.65-.18.47-.06.93-.05,1.39.02.47.06.93.16,1.4.26.01,0,.03,0,.04,0,.09-.02.18-.04.27-.06.53-.15.93-.45,1.14-.97.13-.33.25-.66.38-.99,1.45-1.67,2.9-3.33,4.36-5,.87-1,1.77-2,2.48-3.12.71-1.12,1.16-2.37,1.47-3.65.11-.47.21-.95.31-1.42.44.93.54,1.98.33,2.99-.01.05,0,.1,0,.14-.03.06-.07.11-.1.16.21-.23.41-.47.59-.73.21-.31.38-.63.53-.97.05-.1.09-.2.13-.31.06-.28.1-.56.11-.84,0,.07.03.13.03.19.05.75-.13,1.49-.4,2.18-.04.11.13.18.19.08.22-.37.43-.75.59-1.14.02.6-.02,1.21-.18,1.8,0,0,0,.01,0,.02-.34.71-.83,1.36-1.3,1.94-.91,1.13-1.94,2.24-2.43,3.64-.2.55-.3,1.14-.32,1.73-.13,1.03.07,2.06.81,3,.97,1.23,2.47,1.79,3.98,1.99.33.04.85.18,1.14-.05.15-.11.23-.31.33-.47.14-.22.27-.43.41-.65.36-.56.74-1.1,1.12-1.65.62-.84,1.26-1.66,1.94-2.44.04-.04.08-.08.12-.13-.22.33-.43.66-.64.99-3.15,4.89-5.2,10.01-6.54,15.66-.23.98-.56,1.95-1.07,2.83-.94,1.61-2.48,2.76-4.07,3.67-1.18.68-2.43,1.23-3.71,1.72-3.43,1.82-6.22,4.36-7.96,7.87-.31.63-.58,1.27-.81,1.92.98-.9,2.12-1.64,3.31-2.22,1.09-.54,2.23-.99,3.38-1.4.14-.05.29-.11.43-.17,0,0,0,.02,0,.02-.26.11-.51.21-.77.33-2.06.96-4.16,2.06-5.79,3.68-.37.37-.71.76-1.02,1.18-.41,1.39-.72,2.8-1.07,4.21.87-1.03,1.87-1.95,3-2.73,1.49-1.04,3.17-1.8,4.82-2.54.95-.43,1.9-.85,2.84-1.3.36-.17.7-.36,1.03-.57,0,.02,0,.05,0,.07-.39.25-.78.51-1.17.77-.93.62-1.9,1.18-2.87,1.74-1.49.88-3.02,1.72-4.39,2.79-1.11.87-2.13,1.9-2.96,3.05-.89,1.24-1.53,2.6-1.99,4.02-.87,3.2-.51,6.64.92,9.64.35.74.77,1.44,1.24,2.11.15.21.3.41.46.62-.71-2.15-1.09-4.4-1.03-6.67.03-1.22.18-2.48.53-3.65.08-.27.17-.53.26-.8-.15,1.26-.18,2.54-.06,3.81.28,2.97,1.18,5.85,2.67,8.44.22.38.45.75.7,1.12.42.66.89,1.28,1.42,1.86.31.36.62.71.96,1.04.08.08.17.12.25.14.39.33.81.64,1.25.93-.05-.17-.11-.34-.16-.51-.51-2.06-.39-4.2-.05-6.27.31-1.89.83-3.75,1.54-5.53.72-1.79,1.61-3.5,2.58-5.17.55-.68,1.1-1.36,1.64-2.06.63-.53,1.25-1.06,1.81-1.66-.27.58-.55,1.16-.83,1.74-1.12,1.62-2.38,3.19-2.98,5.09-.03.08.1.14.14.06.48-1.08,1.15-2.03,1.87-2.95l-.03.08c1.3-1.55,3.08-2.68,4.2-4.36.48-.72.86-1.54,1.17-2.42.61-1.28,1.09-2.63,1.42-4.01.16-.6.28-1.21.37-1.82.23,3.52.58,6.55,2.26,9.74,1.66,3.16,4.18,5.73,5.86,8.84.81,1.51,1.46,3.24,1.5,4.98,0,.13.2.13.21,0,.07-1.5-.12-2.98-.65-4.38-.24-.64-.53-1.26-.84-1.87.39.59.76,1.19,1.1,1.81.9,1.66,1.35,3.47,1.46,5.35.05.78.04,1.59-.03,2.38.06-.1.11-.21.15-.32.08-.04.16-.09.23-.18.83-1.17,1.53-2.48,2.07-3.85.29-.54.55-1.1.76-1.68.8-2.17,1.01-4.62.28-6.83-.17-.52-.4-1.02-.67-1.5-.39-.6-.82-1.17-1.29-1.72-1.1-1.3-2.36-2.47-3.42-3.8-.65-.81-1.25-1.69-1.73-2.63.05.06.1.12.15.18.19.34.4.67.64.96.62.74,1.33,1.38,2.06,2,1.15.98,2.34,1.89,3.35,3.01.1-1.22.05-2.5-.1-3.77-.04-.06-.08-.12-.12-.18-.73-.96-1.63-1.74-2.56-2.5-.97-.8-1.97-1.59-2.92-2.44,0-.04,0-.08,0-.12.16.13.32.27.49.4,1.68,1.25,3.5,2.31,4.97,3.78-.21-1.37-.52-2.72-.87-3.98-.53-1.93-1.31-3.82-2.43-5.49-1.22-1.8-2.89-3.22-4.01-5.1-.78-1.31-1.34-2.83-1.19-4.38.13-1.27.68-2.41,1.38-3.46,2.18-2.69,4.69-5.16,7.08-7.69,1.73-1.83,3.08-3.9,4.38-6.06.26-.43.51-.86.76-1.3.03.04.06.07.1.11.13.33.25.66.38.99.21.52.61.81,1.14.97.09.03.18.04.27.06.01,0,.03,0,.04,0,.46-.1.93-.2,1.4-.26.47-.06.93-.08,1.39-.02.23.03.44.09.65.18.07.03.15.06.22.1.02-.05.04-.1.03-.16-.04-.27-.25-.48-.49-.59-.29-.14-.6-.12-.91-.15-.2-.02-.54-.1-.56-.35-.01-.2.25-.18.38-.16.24.04.47.16.69.27.25.12.5.25.75.38.96.49,1.97,1.01,3.07.93.08,0,.15-.05.19-.11-.02,0-.03,0-.05-.01ZM48.79,40.1c.16-.57.37-1.13.62-1.66.07-.1.13-.2.2-.3.02-.01.04-.02.05-.03,0,.02,0,.04,0,.06.02-.03.04-.06.05-.09.11-.07.23-.14.34-.21.04.25.07.5.11.75.04.22.08.44.13.66-.5.27-1.01.55-1.5.83ZM52.43,28.94c-.24-.54-.62-1.04-.98-1.51-.7-.91-1.42-1.84-1.74-2.96.01-.15.03-.3.06-.44.18.96.59,1.86,1.21,2.62.34.42.77.75,1.16,1.13.38.37.62.82.71,1.34.1.62-.05,1.21-.31,1.74.04-.25.08-.51.09-.76.04-.39,0-.77-.18-1.17ZM52.8,31.86s.7-1.33.75-1.52c.13-.55.1-1.04-.03-1.58.09.18.17.37.22.57.26,1.05-.09,2.07-.81,2.78-.04-.08-.08-.17-.12-.25Z"/>
        </g>
      </g>
      <g>
        <path class="cls-1" d="M106.22,26.8V9.56c0-1.17-.4-1.46-2.29-1.57v-.23h7.44c5.35,0,8.04,2.06,8.04,5.5,0,3.84-3.26,6.07-9.13,6.07v-.34c3.98-.26,5.95-2.12,5.95-5.21,0-3.43-1.95-5.55-5.64-5.55h-1.32v18.55c0,1.17.4,1.49,2.98,1.6v.23h-8.33v-.23c1.89-.11,2.29-.4,2.29-1.57Z"/>
        <path class="cls-1" d="M159.66,26.8V9.56c0-1.17-.4-1.46-2.43-1.57v-.23h7.9v.23c-2.03.11-2.43.4-2.43,1.57v17.23c0,1.17.4,1.46,2.43,1.57v.23h-7.9v-.23c2.03-.11,2.43-.4,2.43-1.57Z"/>
        <path class="cls-1" d="M182.5,26.8v-8.47h-10.65v8.47c0,1.17.4,1.46,2.29,1.57v.23h-7.64v-.23c1.89-.11,2.29-.4,2.29-1.57V9.56c0-1.17-.4-1.46-2.29-1.57v-.23h7.64v.23c-1.89.11-2.29.4-2.29,1.57v8.19h10.65v-8.19c0-1.17-.4-1.46-2.29-1.57v-.23h7.64v.23c-1.89.11-2.29.4-2.29,1.57v17.23c0,1.17.4,1.46,2.29,1.57v.23h-7.64v-.23c1.89-.11,2.29-.4,2.29-1.57Z"/>
        <path class="cls-1" d="M212.13,25.11v-13.85c0-2.35-.92-3.09-2.95-3.26v-.23h5.7l11.71,15.71v-12.22c0-2.35-.92-3.09-3.75-3.26v-.23h7.36v.23c-2.03.17-2.95.92-2.95,3.26v17.63h-.26l-14.23-18.81v15.03c0,2.35.92,3.09,3.75,3.26v.23h-7.33v-.23c2.03-.17,2.95-.92,2.95-3.26Z"/>
        <path class="cls-1" d="M106.22,56.25v-17.23c0-1.17-.4-1.46-2.29-1.57v-.23h14.48l.94,4.92h-.23c-1.63-3.55-3.09-4.47-6.44-4.47h-3.41v9.56h3.23c2.63,0,3.35-1.32,3.86-3.69h.26v8.02h-.26c-.52-2.52-1.23-3.81-3.86-3.81h-3.23v8.56c0,.89.49,1.29,1.4,1.29h2.83c2.89,0,4.58-.97,6.73-4.75h.26l-1.57,5.21h-15v-.23c1.89-.11,2.29-.4,2.29-1.57Z"/>
        <path class="cls-1" d="M124.6,54.56v-13.85c0-2.35-.92-3.09-2.95-3.26v-.23h5.7l11.71,15.71v-12.22c0-2.35-.92-3.09-3.75-3.26v-.23h7.36v.23c-2.03.17-2.95.92-2.95,3.26v17.63h-.26l-14.23-18.81v15.03c0,2.35.92,3.09,3.75,3.26v.23h-7.33v-.23c2.03-.17,2.95-.92,2.95-3.26Z"/>
        <path class="cls-1" d="M143.63,48.03c0-6.38,4.87-11.11,10.99-11.11,3.98,0,5.87,1.35,6.61,1.35.4,0,.69-.26.86-1.06h.26l.72,6.44h-.23c-1.83-4.32-5.12-6.21-8.22-6.21-4.26,0-7.53,3.58-7.53,9.27,0,7.41,4.18,11.11,8.27,11.11,2.18,0,4.69-.86,4.69-2.38v-4.69c0-1.17-.4-1.49-3.03-1.6v-.23h8.33v.23c-1.86.11-2.26.4-2.26,1.57v4.41c0,.77.31.89,1.12.6l.09.2c-2.29,1.37-6.35,2.4-9.5,2.4-6.27,0-11.16-3.46-11.16-10.3Z"/>
        <path class="cls-1" d="M168.96,56.25v-17.23c0-1.17-.4-1.46-2.29-1.57v-.23h7.64v.23c-1.89.11-2.29.4-2.29,1.57v17.29c0,.89.49,1.29,1.4,1.29h2.23c2.92,0,4.69-1.06,6.84-4.87h.23l-1.6,5.32h-14.46v-.23c1.89-.11,2.29-.46,2.29-1.57Z"/>
        <path class="cls-1" d="M186.08,56.25v-17.23c0-1.17-.4-1.46-2.43-1.57v-.23h7.9v.23c-2.03.11-2.43.4-2.43,1.57v17.23c0,1.17.4,1.46,2.43,1.57v.23h-7.9v-.23c2.03-.11,2.43-.4,2.43-1.57Z"/>
        <path class="cls-1" d="M195.01,57.42c-.29,0-.46.17-.6.63h-.23l-.66-6.21h.23c1.37,3.69,3.21,6.04,6.35,6.04,2.95,0,4.78-1.66,4.78-4.09,0-1.86-1.15-3.29-4.18-4.58l-1.69-.72c-3.49-1.49-4.61-3.46-4.61-5.67,0-3.32,2.52-5.9,5.95-5.9,2.32,0,3.84.92,4.47.92.29,0,.43-.17.57-.63h.23l.6,5.5h-.23c-1.35-3.32-3.06-5.32-5.64-5.32-2.06,0-3.89,1.29-3.89,3.64,0,1.72.63,3.03,4.12,4.52l1.69.72c3.43,1.46,4.67,3.38,4.67,5.75,0,3.66-2.95,6.33-6.84,6.33-2.55,0-4.49-.92-5.1-.92Z"/>
        <path class="cls-1" d="M225.01,56.25v-8.47h-10.65v8.47c0,1.17.4,1.46,2.29,1.57v.23h-7.64v-.23c1.89-.11,2.29-.4,2.29-1.57v-17.23c0-1.17-.4-1.46-2.29-1.57v-.23h7.64v.23c-1.89.11-2.29.4-2.29,1.57v8.19h10.65v-8.19c0-1.17-.4-1.46-2.29-1.57v-.23h7.64v.23c-1.89.11-2.29.4-2.29,1.57v17.23c0,1.17.4,1.46,2.29,1.57v.23h-7.64v-.23c1.89-.11,2.29-.4,2.29-1.57Z"/>
        <path class="cls-1" d="M205.77,24.82l-5.35-14.34c-.72-1.86-.86-2.29-1.12-3.29h-.2c-.6.77-1.72,1.32-2.72,1.55l.66,1.69-5.21,14.11c-1.09,2.81-2.06,3.66-3.52,3.84v.23h6.56v-.23c-2.78-.17-3.26-1.32-2.38-3.66l1.57-4.27.2-.57.56-1.55h5.31l.57,1.55.23.57,2.09,5.72c.52,1.43.43,2.06-1.92,2.2v.23h8.07v-.23c-1.86-.17-2.32-.74-3.41-3.55ZM195.04,17.75l2.44-6.7,2.46,6.7h-4.89Z"/>
        <path class="cls-1" d="M153.16,24.19l-4.18-6.35c2.4-.6,5.24-1.95,5.24-5.1s-2.75-4.98-8.04-4.98h-7.44v.23c1.92.11,2.29.4,2.29,1.57v17.23c0,1.17-.37,1.46-2.29,1.57v.23h8.02v-.23c-2.26-.11-2.66-.4-2.66-1.57v-8.47h1.6c.37.07.63.32,1.09,1.12l3.66,6.13c1.6,2.78,2.78,3.15,4.67,3.15.74,0,1.77-.06,2.29-.11v-.23c-1.17-.11-2.29-1.15-4.24-4.18ZM145.41,8.22c3.66,0,5.64,1.77,5.64,5.04,0,2.44-1.59,4.07-4.01,4.49h-2.94v-9.53h1.32Z"/>
        <path class="cls-1" d="M135.02,24.82l-5.35-14.34c-.72-1.86-.86-2.29-1.12-3.29h-.2c-.6.77-1.72,1.32-2.72,1.55l.66,1.69-5.21,14.11c-1.09,2.81-2.06,3.66-3.52,3.84v.23h6.56v-.23c-2.78-.17-3.26-1.32-2.38-3.66l1.44-3.9.34-.94h0l.18-.51h0s.38-1.04.38-1.04h5.31l.45,1.21.35.91h0l2.09,5.72c.52,1.43.43,2.06-1.92,2.2v.23h8.07v-.23c-1.86-.17-2.32-.74-3.41-3.55ZM124.28,17.75l2.44-6.7,2.46,6.7h-4.89Z"/>
        <g>
          <path class="cls-1" d="M161.04,4.74c.98,0,1.95.07,2.89.2l1.48-2.4-.12-.09c-.42.66-1.05,1.02-1.45.79-.41-.24-.41-1.02,0-1.74,0-.01.01-.02.02-.03l-.17-.1c-.32.97-.97,1.62-1.59,1.51-.66-.12-1.06-1.07-.96-2.2h-.2c.1,1.13-.29,2.09-.96,2.21-.61.11-1.26-.53-1.58-1.5l-.18.06s.02.03.03.05c.42.72.42,1.5,0,1.74-.39.23-1.02-.12-1.44-.78l-.14.09,1.47,2.39c.94-.13,1.91-.2,2.89-.2Z"/>
          <circle class="cls-1" cx="161.04" cy=".4" r=".4"/>
          <circle class="cls-1" cx="163.87" cy="1.14" r=".4"/>
          <circle class="cls-1" cx="165.46" cy="2.27" r=".4"/>
          <circle class="cls-1" cx="156.68" cy="2.27" r=".4"/>
          <circle class="cls-1" cx="158.18" cy="1.14" r=".4"/>
        </g>
      </g>
    </g>
  </g>
</svg>